<svg width="174" height="40" viewBox="0 0 174 40" fill="none" xmlns="http://www.w3.org/2000/svg">
<path d="M64.6852 17.464V23.896C64.6852 24.344 64.7892 24.672 64.9972 24.88C65.2212 25.072 65.5892 25.168 66.1012 25.168H67.6612V28H65.5492C62.7172 28 61.3012 26.624 61.3012 23.872V17.464H59.7172V14.704H61.3012V11.416H64.6852V14.704H67.6612V17.464H64.6852ZM75.1659 28.216C74.0779 28.216 73.1019 28.024 72.2379 27.64C71.3739 27.24 70.6859 26.704 70.1739 26.032C69.6779 25.36 69.4059 24.616 69.3579 23.8H72.7419C72.8059 24.312 73.0539 24.736 73.4859 25.072C73.9339 25.408 74.4859 25.576 75.1419 25.576C75.7819 25.576 76.2779 25.448 76.6299 25.192C76.9979 24.936 77.1819 24.608 77.1819 24.208C77.1819 23.776 76.9579 23.456 76.5099 23.248C76.0779 23.024 75.3819 22.784 74.4219 22.528C73.4299 22.288 72.6139 22.04 71.9739 21.784C71.3499 21.528 70.8059 21.136 70.3419 20.608C69.8939 20.08 69.6699 19.368 69.6699 18.472C69.6699 17.736 69.8779 17.064 70.2939 16.456C70.7259 15.848 71.3339 15.368 72.1179 15.016C72.9179 14.664 73.8539 14.488 74.9259 14.488C76.5099 14.488 77.7739 14.888 78.7179 15.688C79.6619 16.472 80.1819 17.536 80.2779 18.88H77.0619C77.0139 18.352 76.7899 17.936 76.3899 17.632C76.0059 17.312 75.4859 17.152 74.8299 17.152C74.2219 17.152 73.7499 17.264 73.4139 17.488C73.0939 17.712 72.9339 18.024 72.9339 18.424C72.9339 18.872 73.1579 19.216 73.6059 19.456C74.0539 19.68 74.7499 19.912 75.6939 20.152C76.6539 20.392 77.4459 20.64 78.0699 20.896C78.6939 21.152 79.2299 21.552 79.6779 22.096C80.1419 22.624 80.3819 23.328 80.3979 24.208C80.3979 24.976 80.1819 25.664 79.7499 26.272C79.3339 26.88 78.7259 27.36 77.9259 27.712C77.1419 28.048 76.2219 28.216 75.1659 28.216ZM105.387 14.512C107.019 14.512 108.331 15.016 109.323 16.024C110.331 17.016 110.835 18.408 110.835 20.2V28H107.475V20.656C107.475 19.616 107.211 18.824 106.683 18.28C106.155 17.72 105.435 17.44 104.523 17.44C103.611 17.44 102.883 17.72 102.339 18.28C101.811 18.824 101.547 19.616 101.547 20.656V28H98.1868V20.656C98.1868 19.616 97.9228 18.824 97.3948 18.28C96.8668 17.72 96.1468 17.44 95.2348 17.44C94.3068 17.44 93.5708 17.72 93.0268 18.28C92.4988 18.824 92.2348 19.616 92.2348 20.656V28H88.8748V14.704H92.2348V16.312C92.6668 15.752 93.2188 15.312 93.8908 14.992C94.5788 14.672 95.3308 14.512 96.1468 14.512C97.1868 14.512 98.1148 14.736 98.9308 15.184C99.7468 15.616 100.379 16.24 100.827 17.056C101.259 16.288 101.883 15.672 102.699 15.208C103.531 14.744 104.427 14.512 105.387 14.512ZM119.927 28.216C118.647 28.216 117.495 27.936 116.471 27.376C115.447 26.8 114.639 25.992 114.047 24.952C113.471 23.912 113.183 22.712 113.183 21.352C113.183 19.992 113.479 18.792 114.071 17.752C114.679 16.712 115.503 15.912 116.543 15.352C117.583 14.776 118.743 14.488 120.023 14.488C121.303 14.488 122.463 14.776 123.503 15.352C124.543 15.912 125.359 16.712 125.951 17.752C126.559 18.792 126.863 19.992 126.863 21.352C126.863 22.712 126.551 23.912 125.927 24.952C125.319 25.992 124.487 26.8 123.431 27.376C122.391 27.936 121.223 28.216 119.927 28.216ZM119.927 25.288C120.535 25.288 121.103 25.144 121.631 24.856C122.175 24.552 122.607 24.104 122.927 23.512C123.247 22.92 123.407 22.2 123.407 21.352C123.407 20.088 123.071 19.12 122.399 18.448C121.743 17.76 120.935 17.416 119.975 17.416C119.015 17.416 118.207 17.76 117.551 18.448C116.911 19.12 116.591 20.088 116.591 21.352C116.591 22.616 116.903 23.592 117.527 24.28C118.167 24.952 118.967 25.288 119.927 25.288ZM136.696 14.512C138.28 14.512 139.56 15.016 140.536 16.024C141.512 17.016 142 18.408 142 20.2V28H138.64V20.656C138.64 19.6 138.376 18.792 137.848 18.232C137.32 17.656 136.6 17.368 135.688 17.368C134.76 17.368 134.024 17.656 133.48 18.232C132.952 18.792 132.688 19.6 132.688 20.656V28H129.328V14.704H132.688V16.36C133.136 15.784 133.704 15.336 134.392 15.016C135.096 14.68 135.864 14.512 136.696 14.512ZM157.555 21.064C157.555 21.544 157.523 21.976 157.459 22.36H147.739C147.819 23.32 148.155 24.072 148.747 24.616C149.339 25.16 150.067 25.432 150.931 25.432C152.179 25.432 153.067 24.896 153.595 23.824H157.219C156.835 25.104 156.099 26.16 155.011 26.992C153.923 27.808 152.587 28.216 151.003 28.216C149.723 28.216 148.571 27.936 147.547 27.376C146.539 26.8 145.747 25.992 145.171 24.952C144.611 23.912 144.331 22.712 144.331 21.352C144.331 19.976 144.611 18.768 145.171 17.728C145.731 16.688 146.515 15.888 147.523 15.328C148.531 14.768 149.691 14.488 151.003 14.488C152.267 14.488 153.395 14.76 154.387 15.304C155.395 15.848 156.171 16.624 156.715 17.632C157.275 18.624 157.555 19.768 157.555 21.064ZM154.075 20.104C154.059 19.24 153.747 18.552 153.139 18.04C152.531 17.512 151.787 17.248 150.907 17.248C150.075 17.248 149.371 17.504 148.795 18.016C148.235 18.512 147.891 19.208 147.763 20.104H154.075ZM172.728 14.704L164.496 34.288H160.92L163.8 27.664L158.472 14.704H162.24L165.672 23.992L169.152 14.704H172.728Z" fill="white"/>
<path d="M34.1422 5.85781C30.3647 2.08031 25.3422 0 20 0C14.6578 0 9.63531 2.08031 5.85781 5.85781C2.08031 9.63531 0 14.6578 0 20C0 25.3422 2.08039 30.3646 5.85781 34.1422C9.63523 37.9198 14.6578 40 20 40C25.3422 40 30.3647 37.9197 34.1422 34.1422C37.9197 30.3647 40 25.3422 40 20C40 14.6578 37.9196 9.63539 34.1422 5.85781Z" fill="#33CC95"/>
<g clip-path="url(#clip0_35212_417)">
<path d="M20.5714 8V33.1429" stroke="white" stroke-width="2" stroke-linecap="round" stroke-linejoin="round"/>
<path d="M26.2857 12.5714H17.7143C16.6534 12.5714 15.636 12.9929 14.8859 13.743C14.1357 14.4931 13.7143 15.5106 13.7143 16.5714C13.7143 17.6323 14.1357 18.6497 14.8859 19.3999C15.636 20.15 16.6534 20.5714 17.7143 20.5714H23.4286C24.4894 20.5714 25.5069 20.9929 26.257 21.743C27.0072 22.4932 27.4286 23.5106 27.4286 24.5714C27.4286 25.6323 27.0072 26.6497 26.257 27.3999C25.5069 28.15 24.4894 28.5714 23.4286 28.5714H13.7143" stroke="white" stroke-width="2" stroke-linecap="round" stroke-linejoin="round"/>
</g>
<defs>
<clipPath id="clip0_35212_417">
<rect width="27.4286" height="27.4286" fill="white" transform="translate(6.85715 6.85714)"/>
</clipPath>
</defs>
</svg>
